<?xml version="1.0" encoding="utf-8"?>
<!-- Generator: Adobe Illustrator 23.1.1, SVG Export Plug-In . SVG Version: 6.00 Build 0)  -->
<svg version="1.1" id="Calque_2" xmlns="http://www.w3.org/2000/svg" xmlns:xlink="http://www.w3.org/1999/xlink" x="0px" y="0px"
	 viewBox="0 0 75 75" style="enable-background:new 0 0 75 75;" xml:space="preserve">
<style type="text/css">
	.st0{fill:url(#SVGID_1_);}
	.st1{fill:url(#SVGID_2_);}
	.st2{fill:url(#SVGID_3_);}
	.st3{fill:url(#SVGID_4_);}
</style>
<g>
	<linearGradient id="SVGID_1_" gradientUnits="userSpaceOnUse" x1="18.8159" y1="13.4789" x2="39.3989" y2="34.0619">
		<stop  offset="0.2297" style="stop-color:#79B969"/>
		<stop  offset="1" style="stop-color:#97F280"/>
	</linearGradient>
	<path class="st0" d="M34.3,36.3c-1.7,0.4-3.5,0.6-5.5,0.6c-2.1,0-3.9-0.3-5.7-1c-1.7-0.7-3.2-1.6-4.5-2.8c-1.2-1.2-2.2-2.6-2.9-4.3
		c-0.7-1.7-1.1-3.5-1.1-5.5c0-2.1,0.4-3.9,1.1-5.6c0.7-1.7,1.7-3.1,3-4.3c1.3-1.2,2.7-2.1,4.4-2.7c1.7-0.6,3.5-0.9,5.5-0.9
		c2,0,3.9,0.3,5.7,0.9c1.7,0.6,3.2,1.4,4.2,2.5l-3.9,4.5c-0.6-0.7-1.4-1.3-2.4-1.7c-1-0.4-2.1-0.7-3.4-0.7c-1.1,0-2.1,0.2-3,0.6
		c-0.9,0.4-1.7,1-2.4,1.7c-0.7,0.7-1.2,1.6-1.6,2.5c-0.4,1-0.6,2-0.6,3.2c0,1.2,0.2,2.3,0.5,3.3c0.3,1,0.8,1.8,1.5,2.6
		c0.7,0.7,1.5,1.3,2.5,1.7c1,0.4,2.1,0.6,3.4,0.6c0.7,0,1.4-0.1,2.1-0.2c0.7-0.1,1.3-0.3,1.8-0.5v-4.7h-4.9v-5h10.6v13.6
		C37.5,35.4,36,35.9,34.3,36.3z"/>
	<linearGradient id="SVGID_2_" gradientUnits="userSpaceOnUse" x1="38.7697" y1="12.1812" x2="61.5878" y2="34.9992">
		<stop  offset="0.2297" style="stop-color:#79B969"/>
		<stop  offset="1" style="stop-color:#97F280"/>
	</linearGradient>
	<path class="st1" d="M40,36.3v-5.4l12.2-15.1H40.3v-5.2H60v5L47.5,30.9h12.8v5.4H40z"/>
	<linearGradient id="SVGID_3_" gradientUnits="userSpaceOnUse" x1="19.6079" y1="41.7351" x2="39.1047" y2="61.2319">
		<stop  offset="0.2297" style="stop-color:#79B969"/>
		<stop  offset="1" style="stop-color:#97F280"/>
	</linearGradient>
	<path class="st2" d="M35.3,63.9c-1.7,0.8-3.6,1.1-5.8,1.1c-2,0-3.8-0.3-5.5-1c-1.7-0.7-3.1-1.6-4.4-2.8c-1.2-1.2-2.2-2.6-2.9-4.3
		c-0.7-1.7-1.1-3.5-1.1-5.5c0-2.1,0.4-3.9,1.1-5.6c0.7-1.7,1.7-3.1,3-4.3c1.3-1.2,2.7-2.1,4.4-2.7c1.7-0.6,3.5-0.9,5.5-0.9
		c1.8,0,3.6,0.3,5.4,1c1.8,0.6,3.2,1.6,4.3,2.8L35,46c-0.6-0.8-1.3-1.4-2.3-1.8c-0.9-0.4-1.9-0.6-2.9-0.6c-1.1,0-2.1,0.2-3,0.6
		c-0.9,0.4-1.7,0.9-2.3,1.7c-0.7,0.7-1.2,1.5-1.5,2.5c-0.4,1-0.5,2-0.5,3.1c0,1.2,0.2,2.2,0.5,3.2c0.4,1,0.9,1.8,1.5,2.5
		c0.6,0.7,1.4,1.2,2.3,1.6c0.9,0.4,1.9,0.6,2.9,0.6c1.2,0,2.3-0.2,3.2-0.7c0.9-0.5,1.7-1.1,2.2-1.9l4.3,4.1
		C38.3,62.1,36.9,63.2,35.3,63.9z"/>
	<linearGradient id="SVGID_4_" gradientUnits="userSpaceOnUse" x1="36.1078" y1="43.5644" x2="58.1324" y2="65.5889">
		<stop  offset="0.2297" style="stop-color:#79B969"/>
		<stop  offset="1" style="stop-color:#97F280"/>
	</linearGradient>
	<path class="st3" d="M41,64.4V38.7h6.2V59h12.1v5.4H41z"/>
</g>
</svg>
